<svg xmlns="http://www.w3.org/2000/svg" width="15.334" height="15.168" viewBox="0 0 15.334 19.168">
  <path id="Icon_Icon_unlock_copy" data-name="Icon / Icon / unlock copy" d="M12.459,19.168H2.875A2.879,2.879,0,0,1,0,16.293V8.626A2.879,2.879,0,0,1,2.875,5.75h.958V3.834a3.834,3.834,0,1,1,7.667,0,.959.959,0,0,1-1.917,0,1.917,1.917,0,1,0-3.834,0V5.75h6.709a2.879,2.879,0,0,1,2.875,2.876v7.667A2.879,2.879,0,0,1,12.459,19.168ZM2.875,7.667a.96.96,0,0,0-.959.958v7.667a.96.96,0,0,0,.959.958h9.583a.96.96,0,0,0,.958-.958V8.626a.96.96,0,0,0-.958-.958Zm4.792,7.667a2.875,2.875,0,1,1,2.875-2.875A2.879,2.879,0,0,1,7.667,15.334Zm0-3.833a.958.958,0,1,0,.958.958A.959.959,0,0,0,7.667,11.5Z" transform="translate(0 0)" fill="#ccccd0"/>
</svg>
