<svg xmlns="http://www.w3.org/2000/svg" width="19.168" height="16.334" viewBox="0 0 19.168 15.334">
  <path id="Icon_Icon_email_copy" data-name="Icon / Icon / email copy" d="M16.293,15.334H2.875A2.879,2.879,0,0,1,0,12.459V2.875A2.879,2.879,0,0,1,2.875,0H16.293a2.879,2.879,0,0,1,2.875,2.876v9.583A2.879,2.879,0,0,1,16.293,15.334ZM1.917,3.115v9.344a.96.96,0,0,0,.958.958H16.293a.96.96,0,0,0,.958-.958V3.115L10.159,8.434a.958.958,0,0,1-1.15,0Zm1.6-1.2,6.07,4.552,6.07-4.552Z" transform="translate(0 0)" fill="#ccccd0"/>
</svg>
