<svg xmlns="http://www.w3.org/2000/svg" width="17.156" height="17.437" viewBox="0 0 17.156 17.437">
  <path id="Google" d="M17.156,8.93A9.027,9.027,0,0,1,16.1,13.324a7.6,7.6,0,0,1-2.971,3.023,8.767,8.767,0,0,1-4.412,1.09A8.452,8.452,0,0,1,4.359,16.26a8.81,8.81,0,0,1-3.182-3.182A8.452,8.452,0,0,1,0,8.719,8.452,8.452,0,0,1,1.178,4.359,8.81,8.81,0,0,1,4.359,1.178,8.452,8.452,0,0,1,8.719,0a8.208,8.208,0,0,1,5.836,2.285L12.2,4.57a4.679,4.679,0,0,0-2.707-1.3,5.277,5.277,0,0,0-2.918.422A5.385,5.385,0,0,0,3.3,8.719a5.32,5.32,0,0,0,.738,2.76,5.756,5.756,0,0,0,1.969,2,5.072,5.072,0,0,0,2.707.756,5.376,5.376,0,0,0,2.777-.7,4.867,4.867,0,0,0,1.582-1.512,4.69,4.69,0,0,0,.6-1.547H8.719V7.453h8.3A8.261,8.261,0,0,1,17.156,8.93Z" fill="#fff"/>
</svg>
