<svg xmlns="http://www.w3.org/2000/svg" width="18" height="14.625" viewBox="0 0 18 14.625">
  <path id="Twitter" d="M16.137,3.656a2.094,2.094,0,0,1,.035.457A10.424,10.424,0,0,1,14.941,9a10.04,10.04,0,0,1-3.551,3.973,10.143,10.143,0,0,1-5.73,1.652A10.242,10.242,0,0,1,0,12.973q.387.035.879.035a7.319,7.319,0,0,0,4.605-1.582,3.434,3.434,0,0,1-2.162-.721A3.671,3.671,0,0,1,2.039,8.895q.352.035.668.035a4.686,4.686,0,0,0,.984-.105,3.719,3.719,0,0,1-2.109-1.3A3.539,3.539,0,0,1,.738,5.2v-.07a3.475,3.475,0,0,0,1.652.492A4.1,4.1,0,0,1,1.2,4.289,3.581,3.581,0,0,1,1.266.668,10.179,10.179,0,0,0,4.623,3.41,10.219,10.219,0,0,0,8.859,4.535a5.124,5.124,0,0,1-.07-.844,3.66,3.66,0,0,1,.492-1.846A3.613,3.613,0,0,1,10.617.492,3.565,3.565,0,0,1,12.445,0a3.522,3.522,0,0,1,1.494.316,4.175,4.175,0,0,1,1.213.844A7.51,7.51,0,0,0,17.508.281,3.663,3.663,0,0,1,15.891,2.32,7.93,7.93,0,0,0,18,1.723,8.114,8.114,0,0,1,16.137,3.656Z" fill="#fff"/>
</svg>
